<svg fill="#000000" version="1.1" id="Capa_1" xmlns="http://www.w3.org/2000/svg" xmlns:xlink="http://www.w3.org/1999/xlink" viewBox="0 0 541.267 541.267" xml:space="preserve"><g id="SVGRepo_bgCarrier" stroke-width="0"></g><g id="SVGRepo_tracerCarrier" stroke-linecap="round" stroke-linejoin="round"></g><g id="SVGRepo_iconCarrier"> <g> <path d="M211.137,540.606c1.874,0.449,3.758,0.66,5.594,0.66c10.806,0,20.598-7.373,23.237-18.341l118.23-493.425 c3.069-12.842-4.848-25.742-17.681-28.831c-12.909-3.098-25.742,4.848-28.831,17.681L193.456,511.775 C190.387,524.618,198.304,537.527,211.137,540.606z"></path> <path d="M342.564,157.055h33.507c-3.901-16.868-11.876-32.14-22.759-44.839L342.564,157.055z"></path> <path d="M283.363,75.802c-3.337-0.315-6.693-0.516-10.117-0.516h-14.812c-50.117,0-91.992,34.932-102.826,81.769h108.276 L283.363,75.802z"></path> <path d="M426.169,406.071l-47.287-162.542v-51.255h-46.416l-64.738,270.15h116.146 C416.292,462.414,435.225,437.207,426.169,406.071z"></path> <path d="M152.806,243.529l-38.413,161.797c-7.488,31.537,12.718,57.098,45.135,57.098h29.52l64.738-270.15h-100.98V243.529z"></path> </g> </g></svg>