<svg fill="#000000" viewBox="0 0 24 24" id="contract-right" data-name="Flat Line" xmlns="http://www.w3.org/2000/svg" class="icon flat-line"><g id="SVGRepo_bgCarrier" stroke-width="0"></g><g id="SVGRepo_tracerCarrier" stroke-linecap="round" stroke-linejoin="round"></g><g id="SVGRepo_iconCarrier"><path id="secondary" d="M15.8,14H13V11.2l4-4V4a1,1,0,0,0-1-1H4A1,1,0,0,0,3,4V20a1,1,0,0,0,1,1H16a1,1,0,0,0,1-1V12.8Z" style="fill: #2ca9bc; stroke-width: 2;"></path><path id="primary" d="M17,13v7a1,1,0,0,1-1,1H4a1,1,0,0,1-1-1V4A1,1,0,0,1,4,3H16a1,1,0,0,1,1,1V7" style="fill: none; stroke: #000000; stroke-linecap: round; stroke-linejoin: round; stroke-width: 2;"></path><path id="primary-2" data-name="primary" d="M20.71,9.09,15.8,14H13V11.2l4.91-4.91a1,1,0,0,1,1.4,0l1.4,1.4A1,1,0,0,1,20.71,9.09ZM7,17h3" style="fill: none; stroke: #000000; stroke-linecap: round; stroke-linejoin: round; stroke-width: 2;">

</path></g></svg>